<?xml version="1.0" encoding="UTF-8"?>
<svg id="Layer_2" data-name="Layer 2" xmlns="http://www.w3.org/2000/svg" viewBox="0 0 56.33 70.75">
  <defs>
    <style>
      .cls-1 {
        fill: #4d4e50;
      }
    </style>
  </defs>
  <g id="Object">
    <g>
      <path class="cls-1" d="m43.91,37.85c-.18.17-.37.33-.56.49-.19.16-.39.33-.59.49-.41.33-.83.64-1.26.94l-8.87,18.23-1.77-10.5,2.62-4.22c-.32.07-.64.13-.96.19-.83.15-1.67.25-2.53.3-.47.03-.94.05-1.41.05-1.82,0-3.59-.22-5.29-.63l2.66,4.31-1.66,10.68-9.83-19.32c-.45-.36-.89-.74-1.32-1.13l-.18.16C-.19,49.29-.01,69.2,0,70.04v.71h56.33l-.03-.75c-.93-23.01-10.14-30.62-12.4-32.15Z"/>
      <path class="cls-1" d="m28.58,0C16.93,0,7.44,9.48,7.44,21.14s9.48,21.14,21.14,21.14,21.14-9.48,21.14-21.14S40.24,0,28.58,0Z"/>
    </g>
  </g>
</svg>