<svg width="48" height="10" viewBox="0 0 48 10" fill="none" xmlns="http://www.w3.org/2000/svg">
<path fill-rule="evenodd" clip-rule="evenodd" d="M5.31723 7.74093H11.2305C11.5703 8.82437 12.3799 9.58674 13.3246 9.58674H46.658C46.7875 9.58674 46.9144 9.57244 47.038 9.54493L41.5877 3.61492H37.3227C37.1242 1.89362 35.9967 0.574707 34.6356 0.574707H0.718156C0.528035 0.574707 0.34247 0.600428 0.163361 0.649409L5.31723 7.74093ZM37.3227 3.61492C37.3431 3.79193 37.3537 3.97323 37.3537 4.15779C37.3537 6.13672 36.1367 7.74093 34.6356 7.74093H11.2305C11.1203 7.38963 11.0595 7.00459 11.0595 6.6008C11.0595 4.95175 12.0736 3.61492 13.3246 3.61492H37.3227Z" fill="#00B5DD"/>
</svg>
