<svg width="85" height="68" viewBox="0 0 85 68" fill="none" xmlns="http://www.w3.org/2000/svg">
<path fill-rule="evenodd" clip-rule="evenodd" d="M20.7315 3C20.7315 1.34315 19.3883 0 17.7315 0H3C1.34315 0 0 1.34314 0 3V38.3303C0 39.9871 1.34315 41.3303 3.00001 41.3303H17.7315C19.3883 41.3303 20.7315 39.9871 20.7315 38.3303V20.6061L32.7523 40.982V64.844C32.7523 66.5009 34.0954 67.844 35.7523 67.844H64.1248C69.8506 67.844 74.7612 65.7987 78.8567 61.708C82.9522 57.5772 85 52.5841 85 46.7288C85 40.9537 82.9522 36.0008 78.8567 31.87C74.7214 27.7793 69.8108 25.7339 64.1248 25.7339H43.9395L41.6019 22.0393C41.0392 21.15 40.9837 20.0308 41.4555 19.0902L48.8518 4.34509C49.8525 2.35017 48.4021 0 46.1702 0H32.3227C31.1601 0 30.1023 0.671647 29.6077 1.72374L20.7315 20.6061V3ZM53.6275 41.0461L43.9395 25.7339H35.7523C34.0954 25.7339 32.7523 27.0771 32.7523 28.7339V40.982C32.8796 41.1978 33.1115 41.3303 33.362 41.3303H53.6275V61.3549C53.6275 63.0118 54.9707 64.3549 56.6275 64.3549H57.2061C59.4726 64.3549 61.1028 63.613 62.0969 62.1291C63.0512 60.6853 63.6476 58.64 63.8862 55.9931C64.085 54.2685 64.1844 51.1805 64.1844 46.7288C64.1844 43.2798 64.0651 39.9912 63.8266 36.863C63.588 34.4969 62.9916 32.6921 62.0373 31.4489C61.0432 29.965 59.4328 29.2231 57.2061 29.2231H56.6275C54.9707 29.2231 53.6275 30.5662 53.6275 32.2231V41.0461ZM53.6275 41.0461L53.7112 41.1783C53.7529 41.2442 53.7055 41.3303 53.6275 41.3303V41.0461Z" fill="#737373"/>
</svg>
