<svg width="85" height="69" viewBox="0 0 85 69" fill="none" xmlns="http://www.w3.org/2000/svg">
<g filter="url(#filter0_i_27_400)">
<mask id="path-1-inside-1_27_400" fill="white">
<path fill-rule="evenodd" clip-rule="evenodd" d="M20.7315 3.84406C20.7315 2.1872 19.3883 0.844055 17.7315 0.844055H3C1.34315 0.844055 0 2.1872 0 3.84405V39.1743C0 40.8312 1.34315 42.1743 3.00001 42.1743H17.7315C19.3883 42.1743 20.7315 40.8312 20.7315 39.1743V21.4502L32.7523 41.8261V65.6881C32.7523 67.3449 34.0954 68.6881 35.7523 68.6881H64.1248C69.8506 68.6881 74.7612 66.6427 78.8567 62.5521C82.9522 58.4213 85 53.4282 85 47.5729C85 41.7978 82.9522 36.8448 78.8567 32.714C74.7214 28.6233 69.8108 26.578 64.1248 26.578H43.9395L41.6019 22.8833C41.0392 21.994 40.9837 20.8749 41.4555 19.9342L48.8518 5.18915C49.8525 3.19422 48.4021 0.844055 46.1702 0.844055H32.3227C31.1601 0.844055 30.1023 1.5157 29.6077 2.56779L20.7315 21.4502V3.84406ZM53.6275 41.8901L43.9395 26.578H35.7523C34.0954 26.578 32.7523 27.9211 32.7523 29.578V41.8261C32.8796 42.0419 33.1115 42.1743 33.362 42.1743H53.6275V62.199C53.6275 63.8558 54.9707 65.199 56.6275 65.199H57.2061C59.4726 65.199 61.1028 64.457 62.0969 62.9732C63.0512 61.5294 63.6476 59.484 63.8862 56.8371C64.085 55.1126 64.1844 52.0245 64.1844 47.5729C64.1844 44.1239 64.0651 40.8353 63.8266 37.7071C63.588 35.3409 62.9916 33.5362 62.0373 32.2929C61.0432 30.8091 59.4328 30.0671 57.2061 30.0671H56.6275C54.9707 30.0671 53.6275 31.4103 53.6275 33.0671V41.8901ZM53.6275 41.8901L53.7112 42.0224C53.7529 42.0883 53.7055 42.1743 53.6275 42.1743V41.8901Z"/>
</mask>
<path fill-rule="evenodd" clip-rule="evenodd" d="M20.7315 3.84406C20.7315 2.1872 19.3883 0.844055 17.7315 0.844055H3C1.34315 0.844055 0 2.1872 0 3.84405V39.1743C0 40.8312 1.34315 42.1743 3.00001 42.1743H17.7315C19.3883 42.1743 20.7315 40.8312 20.7315 39.1743V21.4502L32.7523 41.8261V65.6881C32.7523 67.3449 34.0954 68.6881 35.7523 68.6881H64.1248C69.8506 68.6881 74.7612 66.6427 78.8567 62.5521C82.9522 58.4213 85 53.4282 85 47.5729C85 41.7978 82.9522 36.8448 78.8567 32.714C74.7214 28.6233 69.8108 26.578 64.1248 26.578H43.9395L41.6019 22.8833C41.0392 21.994 40.9837 20.8749 41.4555 19.9342L48.8518 5.18915C49.8525 3.19422 48.4021 0.844055 46.1702 0.844055H32.3227C31.1601 0.844055 30.1023 1.5157 29.6077 2.56779L20.7315 21.4502V3.84406ZM53.6275 41.8901L43.9395 26.578H35.7523C34.0954 26.578 32.7523 27.9211 32.7523 29.578V41.8261C32.8796 42.0419 33.1115 42.1743 33.362 42.1743H53.6275V62.199C53.6275 63.8558 54.9707 65.199 56.6275 65.199H57.2061C59.4726 65.199 61.1028 64.457 62.0969 62.9732C63.0512 61.5294 63.6476 59.484 63.8862 56.8371C64.085 55.1126 64.1844 52.0245 64.1844 47.5729C64.1844 44.1239 64.0651 40.8353 63.8266 37.7071C63.588 35.3409 62.9916 33.5362 62.0373 32.2929C61.0432 30.8091 59.4328 30.0671 57.2061 30.0671H56.6275C54.9707 30.0671 53.6275 31.4103 53.6275 33.0671V41.8901ZM53.6275 41.8901L53.7112 42.0224C53.7529 42.0883 53.7055 42.1743 53.6275 42.1743V41.8901Z" fill="#00BDF9"/>
<path d="M78.8567 62.5521L79.5634 63.2596L79.5669 63.2561L78.8567 62.5521ZM78.8567 32.714L79.5669 32.0099L79.56 32.0031L78.8567 32.714ZM62.0969 62.9732L62.9277 63.5297L62.9311 63.5246L62.0969 62.9732ZM63.8862 56.8371L62.8928 56.7226L62.8914 56.7349L62.8902 56.7473L63.8862 56.8371ZM63.8266 37.7071L64.8237 37.6311L64.8227 37.6189L64.8215 37.6068L63.8266 37.7071ZM62.0373 32.2929L61.2064 32.8495L61.2244 32.8763L61.244 32.9018L62.0373 32.2929ZM29.6077 2.56779L30.5127 2.99321L29.6077 2.56779ZM48.8518 5.18915L49.7456 5.63751L48.8518 5.18915ZM41.6019 22.8833L40.7568 23.418L41.6019 22.8833ZM41.4555 19.9342L42.3494 20.3826L41.4555 19.9342ZM53.7112 42.0224L54.5563 41.4877L53.7112 42.0224ZM3 1.84406H17.7315V-0.155945H3V1.84406ZM1 39.1743V3.84405H-1V39.1743H1ZM17.7315 41.1743H3.00001V43.1743H17.7315V41.1743ZM19.7315 21.4502V39.1743H21.7315V21.4502H19.7315ZM33.6136 41.318L21.5928 20.942L19.8702 21.9583L31.891 42.3342L33.6136 41.318ZM33.7523 65.6881V41.8261H31.7523V65.6881H33.7523ZM64.1248 67.6881H35.7523V69.6881H64.1248V67.6881ZM78.15 61.8445C74.2397 65.7502 69.5823 67.6881 64.1248 67.6881V69.6881C70.1188 69.6881 75.2827 67.5352 79.5634 63.2596L78.15 61.8445ZM84 47.5729C84 53.1664 82.0551 57.9059 78.1466 61.848L79.5669 63.2561C83.8494 58.9367 86 53.69 86 47.5729H84ZM78.1466 33.4181C82.0579 37.3631 84 42.0637 84 47.5729H86C86 41.5319 83.8465 36.3265 79.5669 32.01L78.1466 33.4181ZM64.1248 27.578C69.5408 27.578 74.2006 29.5147 78.1535 33.425L79.56 32.0031C75.2423 27.732 70.0808 25.578 64.1248 25.578V27.578ZM43.9395 27.578H64.1248V25.578H43.9395V27.578ZM40.7568 23.418L43.0945 27.1127L44.7846 26.0433L42.447 22.3487L40.7568 23.418ZM47.9579 4.74078L40.5617 19.4859L42.3494 20.3826L49.7456 5.63751L47.9579 4.74078ZM32.3227 1.84406H46.1702V-0.155945H32.3227V1.84406ZM21.6365 21.8756L30.5127 2.99321L28.7027 2.14237L19.8265 21.0247L21.6365 21.8756ZM19.7315 3.84406V21.4502H21.7315V3.84406H19.7315ZM43.0945 27.1127L52.7825 42.4248L54.4726 41.3555L44.7846 26.0433L43.0945 27.1127ZM35.7523 27.578H43.9395V25.578H35.7523V27.578ZM33.7523 41.8261V29.578H31.7523V41.8261H33.7523ZM53.6275 41.1743H33.362V43.1743H53.6275V41.1743ZM52.6275 42.1743V62.199H54.6275V42.1743H52.6275ZM56.6275 66.199H57.2061V64.199H56.6275V66.199ZM57.2061 66.199C59.7051 66.199 61.698 65.3653 62.9277 63.5297L61.2661 62.4166C60.5076 63.5488 59.2401 64.199 57.2061 64.199V66.199ZM62.9311 63.5246C64.0128 61.8881 64.636 59.6581 64.8822 56.9269L62.8902 56.7473C62.6593 59.3099 62.0896 61.1707 61.2627 62.4217L62.9311 63.5246ZM64.8796 56.9516C65.0858 55.163 65.1844 52.0217 65.1844 47.5729H63.1844C63.1844 52.0273 63.0842 55.0622 62.8928 56.7226L64.8796 56.9516ZM65.1844 47.5729C65.1844 44.101 65.0643 40.7869 64.8237 37.6311L62.8295 37.7831C63.0659 40.8837 63.1844 44.1468 63.1844 47.5729H65.1844ZM64.8215 37.6068C64.5732 35.1444 63.9422 33.1324 62.8305 31.6841L61.244 32.9018C62.0409 33.94 62.6027 35.5375 62.8316 37.8074L64.8215 37.6068ZM62.8681 31.7364C61.6418 29.9059 59.6731 29.0671 57.2061 29.0671V31.0671C59.1925 31.0671 60.4445 31.7122 61.2064 32.8495L62.8681 31.7364ZM57.2061 29.0671H56.6275V31.0671H57.2061V29.0671ZM52.6275 33.0671V41.8901H54.6275V33.0671H52.6275ZM52.7825 42.4248L52.8661 42.557L54.5563 41.4877L54.4726 41.3555L52.7825 42.4248ZM52.6275 41.8901V42.1743H54.6275V41.8901H52.6275ZM56.6275 29.0671C54.4184 29.0671 52.6275 30.858 52.6275 33.0671H54.6275C54.6275 31.9626 55.523 31.0671 56.6275 31.0671V29.0671ZM52.6275 62.199C52.6275 64.4081 54.4184 66.199 56.6275 66.199V64.199C55.5229 64.199 54.6275 63.3035 54.6275 62.199H52.6275ZM31.891 42.3342C32.1981 42.8548 32.7576 43.1743 33.362 43.1743V41.1743C33.4654 41.1743 33.5611 41.229 33.6136 41.318L31.891 42.3342ZM32.3227 -0.155945C30.7726 -0.155945 29.3621 0.739585 28.7027 2.14237L30.5127 2.99321C30.8424 2.29182 31.5476 1.84406 32.3227 1.84406V-0.155945ZM49.7456 5.63751C51.0799 2.97761 49.146 -0.155945 46.1702 -0.155945V1.84406C47.6581 1.84406 48.6251 3.41083 47.9579 4.74078L49.7456 5.63751ZM17.7315 43.1743C19.9406 43.1743 21.7315 41.3835 21.7315 39.1743H19.7315C19.7315 40.2789 18.836 41.1743 17.7315 41.1743V43.1743ZM42.447 22.3487C42.0718 21.7558 42.0348 21.0097 42.3494 20.3826L40.5617 19.4859C39.9325 20.7401 40.0066 22.2322 40.7568 23.418L42.447 22.3487ZM-1 39.1743C-1 41.3835 0.790868 43.1743 3.00001 43.1743V41.1743C1.89543 41.1743 1 40.2789 1 39.1743H-1ZM35.7523 25.578C33.5432 25.578 31.7523 27.3689 31.7523 29.578H33.7523C33.7523 28.4734 34.6477 27.578 35.7523 27.578V25.578ZM52.8661 42.557C52.4866 41.9571 52.9176 41.1743 53.6275 41.1743V43.1743C54.4935 43.1743 55.0192 42.2195 54.5563 41.4877L52.8661 42.557ZM31.7523 65.6881C31.7523 67.8972 33.5432 69.6881 35.7523 69.6881V67.6881C34.6477 67.6881 33.7523 66.7927 33.7523 65.6881H31.7523ZM17.7315 1.84406C18.836 1.84406 19.7315 2.73949 19.7315 3.84406H21.7315C21.7315 1.63491 19.9406 -0.155945 17.7315 -0.155945V1.84406ZM3 -0.155945C0.790862 -0.155945 -1 1.63491 -1 3.84405H1C1 2.73948 1.89543 1.84406 3 1.84406V-0.155945Z" fill="white" mask="url(#path-1-inside-1_27_400)"/>
</g>
<defs>
<filter id="filter0_i_27_400" x="0" y="0.844055" width="86" height="69.3441" filterUnits="userSpaceOnUse" color-interpolation-filters="sRGB">
<feFlood flood-opacity="0" result="BackgroundImageFix"/>
<feBlend mode="normal" in="SourceGraphic" in2="BackgroundImageFix" result="shape"/>
<feColorMatrix in="SourceAlpha" type="matrix" values="0 0 0 0 0 0 0 0 0 0 0 0 0 0 0 0 0 0 127 0" result="hardAlpha"/>
<feOffset dx="1" dy="5"/>
<feGaussianBlur stdDeviation="0.75"/>
<feComposite in2="hardAlpha" operator="arithmetic" k2="-1" k3="1"/>
<feColorMatrix type="matrix" values="0 0 0 0 0 0 0 0 0 0 0 0 0 0 0 0 0 0 0.48 0"/>
<feBlend mode="normal" in2="shape" result="effect1_innerShadow_27_400"/>
</filter>
</defs>
</svg>
