<svg width="85" height="69" viewBox="0 0 85 69" fill="none" xmlns="http://www.w3.org/2000/svg">
<path fill-rule="evenodd" clip-rule="evenodd" d="M20.7315 3.68811C20.7315 2.03126 19.3883 0.68811 17.7315 0.68811H3C1.34315 0.68811 0 2.03125 0 3.68811V39.0184C0 40.6752 1.34315 42.0184 3.00001 42.0184H17.7315C19.3883 42.0184 20.7315 40.6752 20.7315 39.0184V21.2942L32.7523 41.6702V65.5322C32.7523 67.189 34.0954 68.5322 35.7523 68.5322H64.1248C69.8506 68.5322 74.7612 66.4868 78.8567 62.3961C82.9522 58.2653 85 53.2723 85 47.4169C85 41.6418 82.9522 36.6889 78.8567 32.5581C74.7214 28.4674 69.8108 26.4221 64.1248 26.4221H43.9395L41.6019 22.7274C41.0392 21.8381 40.9837 20.7189 41.4555 19.7783L48.8518 5.0332C49.8525 3.03828 48.4021 0.68811 46.1702 0.68811H32.3227C31.1601 0.68811 30.1023 1.35976 29.6077 2.41185L20.7315 21.2942V3.68811ZM53.6275 41.7342L43.9395 26.4221H35.7523C34.0954 26.4221 32.7523 27.7652 32.7523 29.4221V41.6702C32.8796 41.886 33.1115 42.0184 33.362 42.0184H53.6275V62.043C53.6275 63.6999 54.9707 65.043 56.6275 65.043H57.2061C59.4726 65.043 61.1028 64.3011 62.0969 62.8172C63.0512 61.3734 63.6476 59.3281 63.8862 56.6812C64.085 54.9567 64.1844 51.8686 64.1844 47.4169C64.1844 43.9679 64.0651 40.6793 63.8266 37.5512C63.588 35.185 62.9916 33.3802 62.0373 32.137C61.0432 30.6531 59.4328 29.9112 57.2061 29.9112H56.6275C54.9707 29.9112 53.6275 31.2543 53.6275 32.9112V41.7342ZM53.6275 41.7342L53.7112 41.8664C53.7529 41.9324 53.7055 42.0184 53.6275 42.0184V41.7342Z" fill="white"/>
</svg>
