<svg width="68" height="69" viewBox="0 0 68 69" fill="none" xmlns="http://www.w3.org/2000/svg">
<path d="M33.2852 2.35632C31.1502 2.35632 29.4727 4.03382 29.4727 6.16882C29.4727 8.30382 31.1502 9.98132 33.2852 9.98132C35.4202 9.98132 37.0977 8.30382 37.0977 6.16882C37.0977 4.03382 35.4202 2.35632 33.2852 2.35632ZM14.2227 9.98132C12.0877 9.98132 10.4102 11.6588 10.4102 13.7938C10.4102 15.9288 12.0877 17.6063 14.2227 17.6063C16.3577 17.6063 18.0352 15.9288 18.0352 13.7938C18.0352 11.6588 16.3577 9.98132 14.2227 9.98132ZM52.3477 9.98132C50.2127 9.98132 48.5352 11.6588 48.5352 13.7938C48.5352 15.9288 50.2127 17.6063 52.3477 17.6063C54.4827 17.6063 56.1602 15.9288 56.1602 13.7938C56.1602 11.6588 54.4827 9.98132 52.3477 9.98132ZM33.2852 17.6063C24.8977 17.6063 18.0352 24.4688 18.0352 32.8563C18.0352 41.2438 24.8977 48.1063 33.2852 48.1063C41.6727 48.1063 48.5352 41.2438 48.5352 32.8563C48.5352 24.4688 41.6727 17.6063 33.2852 17.6063ZM6.59766 29.0438C4.46266 29.0438 2.78516 30.7213 2.78516 32.8563C2.78516 34.9913 4.46266 36.6688 6.59766 36.6688C8.73266 36.6688 10.4102 34.9913 10.4102 32.8563C10.4102 30.7213 8.73266 29.0438 6.59766 29.0438ZM59.9727 29.0438C57.8377 29.0438 56.1602 30.7213 56.1602 32.8563C56.1602 34.9913 57.8377 36.6688 59.9727 36.6688C62.1077 36.6688 63.7852 34.9913 63.7852 32.8563C63.7852 30.7213 62.1077 29.0438 59.9727 29.0438ZM14.2227 48.1063C12.0877 48.1063 10.4102 49.7838 10.4102 51.9188C10.4102 54.0538 12.0877 55.7313 14.2227 55.7313C16.3577 55.7313 18.0352 54.0538 18.0352 51.9188C18.0352 49.7838 16.3577 48.1063 14.2227 48.1063ZM52.3477 48.1063C50.2127 48.1063 48.5352 49.7838 48.5352 51.9188C48.5352 54.0538 50.2127 55.7313 52.3477 55.7313C54.4827 55.7313 56.1602 54.0538 56.1602 51.9188C56.1602 49.7838 54.4827 48.1063 52.3477 48.1063ZM33.2852 55.7313C31.1502 55.7313 29.4727 57.4088 29.4727 59.5438C29.4727 61.6788 31.1502 63.3563 33.2852 63.3563C35.4202 63.3563 37.0977 61.6788 37.0977 59.5438C37.0977 57.4088 35.4202 55.7313 33.2852 55.7313Z" fill="white"/>
</svg>
