<svg width="68" height="68" viewBox="0 0 68 68" fill="none" xmlns="http://www.w3.org/2000/svg">
<path d="M33.2852 2C31.1502 2 29.4727 3.6775 29.4727 5.8125C29.4727 7.9475 31.1502 9.625 33.2852 9.625C35.4202 9.625 37.0977 7.9475 37.0977 5.8125C37.0977 3.6775 35.4202 2 33.2852 2ZM14.2227 9.625C12.0877 9.625 10.4102 11.3025 10.4102 13.4375C10.4102 15.5725 12.0877 17.25 14.2227 17.25C16.3577 17.25 18.0352 15.5725 18.0352 13.4375C18.0352 11.3025 16.3577 9.625 14.2227 9.625ZM52.3477 9.625C50.2127 9.625 48.5352 11.3025 48.5352 13.4375C48.5352 15.5725 50.2127 17.25 52.3477 17.25C54.4827 17.25 56.1602 15.5725 56.1602 13.4375C56.1602 11.3025 54.4827 9.625 52.3477 9.625ZM33.2852 17.25C24.8977 17.25 18.0352 24.1125 18.0352 32.5C18.0352 40.8875 24.8977 47.75 33.2852 47.75C41.6727 47.75 48.5352 40.8875 48.5352 32.5C48.5352 24.1125 41.6727 17.25 33.2852 17.25ZM6.59766 28.6875C4.46266 28.6875 2.78516 30.365 2.78516 32.5C2.78516 34.635 4.46266 36.3125 6.59766 36.3125C8.73266 36.3125 10.4102 34.635 10.4102 32.5C10.4102 30.365 8.73266 28.6875 6.59766 28.6875ZM59.9727 28.6875C57.8377 28.6875 56.1602 30.365 56.1602 32.5C56.1602 34.635 57.8377 36.3125 59.9727 36.3125C62.1077 36.3125 63.7852 34.635 63.7852 32.5C63.7852 30.365 62.1077 28.6875 59.9727 28.6875ZM14.2227 47.75C12.0877 47.75 10.4102 49.4275 10.4102 51.5625C10.4102 53.6975 12.0877 55.375 14.2227 55.375C16.3577 55.375 18.0352 53.6975 18.0352 51.5625C18.0352 49.4275 16.3577 47.75 14.2227 47.75ZM52.3477 47.75C50.2127 47.75 48.5352 49.4275 48.5352 51.5625C48.5352 53.6975 50.2127 55.375 52.3477 55.375C54.4827 55.375 56.1602 53.6975 56.1602 51.5625C56.1602 49.4275 54.4827 47.75 52.3477 47.75ZM33.2852 55.375C31.1502 55.375 29.4727 57.0525 29.4727 59.1875C29.4727 61.3225 31.1502 63 33.2852 63C35.4202 63 37.0977 61.3225 37.0977 59.1875C37.0977 57.0525 35.4202 55.375 33.2852 55.375Z" fill="#00BDF9"/>
</svg>
