<svg width="58" height="8" viewBox="0 0 58 8" fill="none" xmlns="http://www.w3.org/2000/svg">
<path fill-rule="evenodd" clip-rule="evenodd" d="M6.94369 6.15112H14.062C14.4711 6.94275 15.4457 7.49978 16.583 7.49978H56.7099C56.8658 7.49978 57.0186 7.48933 57.1673 7.46924L50.6062 3.1364H45.472C45.2331 1.87872 43.8758 0.915039 42.2372 0.915039H1.40731C1.17844 0.915039 0.955053 0.933833 0.739441 0.969621L6.94369 6.15112ZM45.472 3.1364C45.4965 3.26574 45.5093 3.39821 45.5093 3.53306C45.5093 4.97898 44.0443 6.15112 42.2372 6.15112H14.062C13.9294 5.89444 13.8562 5.61311 13.8562 5.31807C13.8562 4.11318 15.077 3.1364 16.583 3.1364H45.472Z" fill="#00B5DD"/>
</svg>
